<?xml version="1.0" encoding="UTF-8" standalone="no"?>
<!-- Generator: Adobe Illustrator 21.1.0, SVG Export Plug-In . SVG Version: 6.00 Build 0)  -->

<svg
   xmlns:dc="http://purl.org/dc/elements/1.1/"
   xmlns:cc="http://creativecommons.org/ns#"
   xmlns:rdf="http://www.w3.org/1999/02/22-rdf-syntax-ns#"
   xmlns:svg="http://www.w3.org/2000/svg"
   xmlns="http://www.w3.org/2000/svg"
   xmlns:sodipodi="http://sodipodi.sourceforge.net/DTD/sodipodi-0.dtd"
   xmlns:inkscape="http://www.inkscape.org/namespaces/inkscape"
   version="1.1"
   id="レイヤー_1"
   x="0px"
   y="0px"
   width="247.70621"
   height="101.5"
   viewBox="0 0 247.70621 101.5"
   xml:space="preserve"
   inkscape:version="0.91 r13725"
   sodipodi:docname="logo.svg"><metadata
     id="metadata19"><rdf:RDF><cc:Work
         rdf:about=""><dc:format>image/svg+xml</dc:format><dc:type
           rdf:resource="http://purl.org/dc/dcmitype/StillImage" /><dc:title></dc:title></cc:Work></rdf:RDF></metadata><defs
     id="defs17" /><sodipodi:namedview
     pagecolor="#ffffff"
     bordercolor="#666666"
     borderopacity="1"
     objecttolerance="10"
     gridtolerance="10"
     guidetolerance="10"
     inkscape:pageopacity="0"
     inkscape:pageshadow="2"
     inkscape:window-width="1448"
     inkscape:window-height="782"
     id="namedview15"
     showgrid="false"
     inkscape:snap-grids="false"
     inkscape:snap-page="true"
     inkscape:snap-text-baseline="true"
     fit-margin-top="0.5"
     fit-margin-left="0.5"
     fit-margin-right="0.5"
     fit-margin-bottom="0.5"
     inkscape:zoom="0.86435331"
     inkscape:cx="-80.249635"
     inkscape:cy="51.100014"
     inkscape:window-x="406"
     inkscape:window-y="274"
     inkscape:window-maximized="0"
     inkscape:current-layer="レイヤー_1" /><style
     type="text/css"
     id="style3">
	.st0{fill:#999999;}
	.st1{fill:#F45326;}
	.st2{fill:#81BD06;}
	.st3{fill:#06A5EF;}
</style><g
     id="g5"
     transform="translate(-38.6,-19.1)"><polygon
       class="st0"
       points="60.5,70.4 39.1,92.7 58.4,92.7 70.6,80.5 82.8,92.7 102.1,92.7 80.8,70.4 102.1,48 82.8,48 70.6,60.2 58.4,48 39.1,48 39.6,48.5 "
       id="polygon7"
       style="fill:#999999" /><path
       class="st1"
       d="M 107.2,62.2 C 106.2,48 121.4,48 121.4,48 l 30.5,0 c 13.2,1 12.2,15.6 12.2,15.6 l -14.2,0 0,-1.4 -28.4,0 0,30.5 -14.2,0 0,-30.5 z"
       id="path9"
       inkscape:connector-curvature="0"
       style="fill:#f45326" /><path
       class="st2"
       d="m 210.7,19.6 0,28.4 -27.4,0 c 0,0 -12.2,-1 -14.2,10.2 l 0,24.4 c 0,0 1,8.1 11.2,10.2 l 32.5,0 c 0,0 11.2,-1 12.2,-11.2 l 0,-62 -14.3,0 z m 0,58.9 -27.4,0 0,-16.3 27.4,0 0,16.3 z"
       id="path11"
       inkscape:connector-curvature="0"
       style="fill:#81bd06" /><path
       class="st3"
       d="m 274.7,47 -32.5,0 c 0,0 -11.2,1 -12.2,11.2 l 0,61.9 14.2,0 0,-28.4 27.4,0 c 0,0 12.2,1 14.2,-10.2 l 0,-24.3 c 0.1,0 -0.9,-8.1 -11.1,-10.2 z m -3,29.5 -27.4,0 0,-16.3 27.4,0 0,16.3 z"
       id="path13"
       inkscape:connector-curvature="0"
       style="fill:#06a5ef" /></g></svg>